<?xml version="1.0" standalone="no"?>
<!DOCTYPE svg PUBLIC "-//W3C//DTD SVG 20010904//EN"
 "http://www.w3.org/TR/2001/REC-SVG-20010904/DTD/svg10.dtd">
<svg version="1.0" xmlns="http://www.w3.org/2000/svg"
 width="517.000000pt" height="517.000000pt" viewBox="0 0 517.000000 517.000000"
 preserveAspectRatio="xMidYMid meet">
<metadata>
Created by potrace 1.14, written by Peter Selinger 2001-2017
</metadata>
<g transform="translate(0.000000,517.000000) scale(0.100000,-0.100000)"
fill="#000000" stroke="none">
<path d="M3435 4813 c-58 -12 -235 -55 -268 -64 -45 -12 -81 -18 -159 -26 -52
-5 -59 -3 -83 21 -31 31 -40 32 -80 8 -57 -33 -108 -45 -395 -92 -30 -5 -82
-14 -115 -19 -85 -15 -131 -21 -205 -30 -36 -4 -79 -14 -96 -23 -50 -27 -329
-26 -373 1 -6 4 -13 18 -14 31 -2 29 -45 56 -117 72 -31 7 -71 24 -92 41 -34
27 -42 29 -100 25 -52 -4 -76 -12 -135 -47 -96 -56 -158 -117 -233 -226 -18
-28 -36 -52 -40 -55 -5 -5 -59 -87 -87 -135 -21 -35 -159 -317 -191 -390 -62
-143 -152 -429 -188 -599 -59 -275 -69 -378 -69 -691 0 -230 8 -361 30 -485 3
-14 7 -41 10 -60 31 -186 114 -454 197 -630 47 -101 145 -273 191 -335 61 -83
154 -202 172 -221 109 -115 138 -144 176 -180 121 -112 322 -245 466 -310 43
-19 87 -39 98 -45 75 -34 353 -111 450 -124 28 -4 61 -9 75 -11 67 -13 376
-15 490 -4 157 15 141 13 275 46 220 55 576 232 745 371 151 123 298 267 370
362 14 18 35 45 46 59 127 159 347 582 399 768 9 32 24 79 32 104 8 25 16 52
18 60 2 8 12 51 24 95 11 44 23 94 26 110 13 69 26 142 30 178 3 20 8 56 11
80 9 70 12 547 4 622 -5 39 -11 97 -15 130 -25 239 -125 676 -186 814 -62 141
-138 214 -220 209 -86 -4 -120 19 -198 136 -121 180 -137 202 -171 234 -49 46
-187 130 -304 185 -96 46 -138 54 -201 40z"/>
</g>
</svg>
